#!OML:ASF H:\LiuWeirdWalks\Patient Classification 1\Patient 1\Session 1\male.ASF
:FULLY-SPECIFIED
:DEGREES
508
root 1.38749 18.1821 -14.8595 5.16419 4.66861 -4.99688
lowerback 0.97657 0.297292 2.06014
upperback -2.53161 0.521591 2.4706
thorax -3.15503 0.243694 1.36704
lowerneck -14.0247 -2.04789 3.2164
upperneck 20.3116 -2.71138 -3.96
head 8.53174 -1.44466 -2.17776
rclavicle 9.82742e-015 1.39149e-015
rhumerus -41.5185 -10.176 -78.2167
rradius 28.7861
rwrist -7.45497
rhand -17.373 -5.41218
rfingers 7.12502
rthumb 8.87542 -35.2055
lclavicle 9.82742e-015 1.39149e-015
lhumerus -41.7631 -0.901034 83.4188
lradius 38.8992
lwrist 15.7932
lhand -13.0462 1.43954
lfingers 7.12502
lthumb 13.0487 31.0114
rfemur 11.7764 -1.93987 24.098
rtibia 21.5792
rfoot 2.42299 -7.37514
rtoes -19.4601
lfemur -22.2502 -3.09977 -16.9465
ltibia 28.2774
lfoot -7.10021 9.36108
ltoes -3.93248
509
root 1.40721 18.1844 -14.798 5.14916 4.52777 -4.88792
lowerback 0.988481 0.261619 1.93894
upperback -2.54301 0.471013 2.45365
thorax -3.17369 0.221101 1.41933
lowerneck -13.9255 -2.03675 3.15127
upperneck 20.3611 -2.69273 -3.8919
head 8.5334 -1.43303 -2.1412
rclavicle 2.02388e-014 2.94201e-014
rhumerus -41.7187 -10.213 -78.0624
rradius 28.7291
rwrist -7.36535
rhand -17.3733 -5.3863
rfingers 7.12502
rthumb 8.87514 -35.1797
lclavicle 2.02388e-014 2.94201e-014
lhumerus -41.5447 -0.969787 83.4401
lradius 38.9167
lwrist 15.8429
lhand -13.0737 1.39532
lfingers 7.12502
lthumb 13.0222 30.9689
rfemur 11.4284 -2.08392 23.7816
rtibia 22.5081
rfoot 2.79034 -7.05416
rtoes -19.0998
lfemur -21.9379 -2.95344 -17.1468
ltibia 28.2116
lfoot -7.19474 9.38025
ltoes -3.56411
510
root 1.42678 18.1869 -14.7366 5.12533 4.40119 -4.79155
lowerback 0.98841 0.222935 1.83559
upperback -2.54211 0.416065 2.43892
thorax -3.17257 0.196017 1.46409
lowerneck -13.8843 -2.02273 3.09883
upperneck 20.4307 -2.67138 -3.83802
head 8.55212 -1.42085 -2.11275
rclavicle 1.7212e-014 -7.55382e-015
rhumerus -41.8995 -10.2603 -77.9074
rradius 28.6703
rwrist -7.28073
rhand -17.3857 -5.39732
rfingers 7.12502
rthumb 8.8632 -35.1912
lclavicle 1.7212e-014 -7.55382e-015
lhumerus -41.2936 -1.03313 83.4619
lradius 38.9077
lwrist 15.8974
lhand -13.1008 1.35355
lfingers 7.12502
lthumb 12.996 30.9288
rfemur 11.0682 -2.27295 23.4707
rtibia 23.4562
rfoot 3.15878 -6.72626
rtoes -18.6857
lfemur -21.612 -2.82896 -17.3337
ltibia 28.1368
lfoot -7.30226 9.4263
ltoes -3.21421
511
root 1.44665 18.1894 -14.6753 5.09153 4.26924 -4.71164
lowerback 0.980737 0.186061 1.75463
upperback -2.53275 0.363749 2.42972
thorax -3.15822 0.171804 1.50191
lowerneck -13.8796 -2.00584 3.0674
upperneck 20.5098 -2.64486 -3.81582
head 8.58005 -1.4081 -2.09876
rclavicle 2.67272e-015 -3.57812e-015
rhumerus -42.0646 -10.3219 -77.7395
rradius 28.5955
rwrist -7.18701
rhand -17.4105 -5.42382
rfingers 7.12502
rthumb 8.83927 -35.2187
lclavicle 2.67272e-015 -3.57812e-015
lhumerus -41.0282 -1.08896 83.4873
lradius 38.8825
lwrist 15.9682
lhand -13.1201 1.28934
lfingers 7.12502
lthumb 12.9774 30.8657
rfemur 10.6965 -2.48472 23.1659
rtibia 24.421
rfoot 3.54318 -6.3842
rtoes -18.2616
lfemur -21.2692 -2.72159 -17.5067
ltibia 28.0562
lfoot -7.41491 9.52093
ltoes -2.90999
512
root 1.46693 18.192 -14.6143 5.0527 4.13016 -4.64814
lowerback 0.975362 0.152107 1.696
upperback -2.5202 0.316075 2.4261
thorax -3.14178 0.14942 1.53275
lowerneck -13.8614 -1.99103 3.04503
upperneck 20.5739 -2.62157 -3.80095
head 8.59998 -1.39698 -2.08853
rclavicle -3.16968e-015 8.94531e-015
rhumerus -42.2204 -10.386 -77.5649
rradius 28.5176
rwrist -7.0981
rhand -17.4498 -5.47102
rfingers 7.12502
rthumb 8.80134 -35.2675
lclavicle -3.16968e-015 8.94531e-015
lhumerus -40.7505 -1.13393 83.514
lradius 38.8435
lwrist 16.0319
lhand -13.1234 1.25241
lfingers 7.12502
lthumb 12.9742 30.829
rfemur 10.3085 -2.71121 22.8689
rtibia 25.4032
rfoot 3.95485 -6.0301
rtoes -17.8238
lfemur -20.9195 -2.65341 -17.6644
ltibia 27.972
lfoot -7.51322 9.67689
ltoes -2.70227
